<svg xmlns="http://www.w3.org/2000/svg" viewBox="0 0 100 100">
  <defs>
    <linearGradient id="grad" x1="0%" y1="0%" x2="100%" y2="100%">
      <stop offset="0%" style="stop-color:#3b82f6;stop-opacity:1" />
      <stop offset="100%" style="stop-color:#60a5fa;stop-opacity:1" />
    </linearGradient>
  </defs>
  <!-- Background with rounded corners -->
  <rect width="100" height="100" rx="22" fill="url(#grad)"/>
  <!-- Letter M -->
  <path d="M 20 30 L 20 70 L 28 70 L 28 50 L 38 60 L 50 50 L 62 60 L 72 50 L 72 70 L 80 70 L 80 30 L 72 30 L 50 48 L 28 30 Z" fill="white"/>
  <!-- Letter R -->
  <path d="M 20 30 L 20 70 L 35 70 Q 48 70 48 58 Q 48 52 44 48 L 50 30 Z M 28 38 L 42 38 Q 47 38 47 44 Q 47 50 42 50 L 28 50 Z" fill="white" transform="translate(62, 0)"/>
</svg>
